<?xml version="1.0" encoding="utf-8"?>
<!-- Generator: Adobe Illustrator 16.0.0, SVG Export Plug-In . SVG Version: 6.00 Build 0)  -->
<!DOCTYPE svg PUBLIC "-//W3C//DTD SVG 1.1//EN" "http://www.w3.org/Graphics/SVG/1.1/DTD/svg11.dtd">
<svg version="1.1" id="Layer_1" xmlns="http://www.w3.org/2000/svg" xmlns:xlink="http://www.w3.org/1999/xlink" x="0px" y="0px"
	 width="28px" height="28px" viewBox="0 0 28 28" enable-background="new 0 0 28 28" xml:space="preserve">
<g transform="scale(0.02734375 0.02734375)">
	<path fill="#F14E95" d="M1023.991,405.711v453.71c0,50.285-41.143,91.428-91.428,91.428H91.428C41.143,950.849,0,909.706,0,859.421
		v-453.71c17.144,18.856,36.571,35.428,57.714,49.714c94.856,64.57,190.855,129.142,283.998,197.141
		c47.999,35.429,107.428,78.856,169.713,78.856h1.143c62.285,0,121.713-43.428,169.713-78.856
		c93.142-67.428,189.141-132.57,284.568-197.141C987.42,441.139,1006.849,424.567,1023.991,405.711L1023.991,405.711z
		 M1023.991,237.712c0,64-47.429,121.714-97.714,156.57c-89.142,61.714-178.855,123.428-267.426,185.713
		c-37.143,25.714-99.999,78.285-146.284,78.285h-1.143c-46.286,0-109.143-52.571-146.285-78.285
		c-88.57-62.285-178.284-123.999-266.854-185.713C57.714,366.854,0,302.283,0,250.284c0-56,30.286-104,91.428-104h841.136
		C982.277,146.284,1023.991,187.427,1023.991,237.712z"/>
</g>
</svg>
