<?xml version="1.0" encoding="utf-8"?>
<!-- Generator: Adobe Illustrator 16.0.0, SVG Export Plug-In . SVG Version: 6.00 Build 0)  -->
<!DOCTYPE svg PUBLIC "-//W3C//DTD SVG 1.1//EN" "http://www.w3.org/Graphics/SVG/1.1/DTD/svg11.dtd">
<svg version="1.1" id="Layer_1" xmlns="http://www.w3.org/2000/svg" xmlns:xlink="http://www.w3.org/1999/xlink" x="0px" y="0px"
	 width="32px" height="32px" viewBox="0 0 32 32" enable-background="new 0 0 32 32" xml:space="preserve">
<g transform="scale(0.03125 0.03125)">
	<path fill="#F14E95" d="M928,0H96C43.203,0,0,43.203,0,96v832c0,52.813,43.203,96,96,96h416V576H384V448h128v-64
		c0-105.797,86.188-192,192-192h128v128H704c-35.188,0-64,28.797-64,64v64h192l-32,128H640v448h288c52.813,0,96-43.188,96-96V96
		C1024,43.203,980.813,0,928,0z"/>
</g>
</svg>
