<?xml version="1.0" encoding="utf-8"?>
<!-- Generator: Adobe Illustrator 16.0.0, SVG Export Plug-In . SVG Version: 6.00 Build 0)  -->
<!DOCTYPE svg PUBLIC "-//W3C//DTD SVG 1.1//EN" "http://www.w3.org/Graphics/SVG/1.1/DTD/svg11.dtd">
<svg version="1.1" id="Layer_1" xmlns="http://www.w3.org/2000/svg" xmlns:xlink="http://www.w3.org/1999/xlink" x="0px" y="0px"
	 width="24px" height="28px" viewBox="0 0 24 28" enable-background="new 0 0 24 28" xml:space="preserve">
<g transform="scale(0.02734375 0.02734375)">
	<path fill="#F14E95" d="M199.427,357.14v566.28H10.857V357.14H199.427z M211.427,182.284
		c0.571,54.285-40.571,97.714-106.285,97.714l0,0h-1.143C40.571,279.998,0,236.569,0,182.284c0-55.428,42.285-97.713,106.285-97.713
		C170.855,84.571,210.855,126.856,211.427,182.284z M877.706,598.852V923.42H689.708V620.566c0-76-27.429-127.999-95.428-127.999
		c-51.999,0-82.856,34.856-96.57,68.57c-4.571,12.571-6.286,29.143-6.286,46.285V923.42H303.426c2.286-513.138,0-566.28,0-566.28
		h187.998v82.285h-1.143c24.571-38.856,69.143-95.428,170.855-95.428C785.136,343.997,877.706,425.14,877.706,598.852
		L877.706,598.852z"/>
</g>
</svg>
