<?xml version="1.0" encoding="utf-8"?>
<!-- Generator: Adobe Illustrator 16.0.0, SVG Export Plug-In . SVG Version: 6.00 Build 0)  -->
<!DOCTYPE svg PUBLIC "-//W3C//DTD SVG 1.1//EN" "http://www.w3.org/Graphics/SVG/1.1/DTD/svg11.dtd">
<svg version="1.1" id="Layer_1" xmlns="http://www.w3.org/2000/svg" xmlns:xlink="http://www.w3.org/1999/xlink" x="0px" y="0px"
	 width="26px" height="28px" viewBox="0 0 26 28" enable-background="new 0 0 26 28" xml:space="preserve">
<g transform="scale(0.02734375 0.02734375)">
	<path fill="#F14E95" d="M925.706,233.141c-25.143,36.571-56.571,69.143-92.57,95.428c0.571,8,0.571,16,0.571,24
		c0,243.998-185.713,525.138-525.139,525.138c-104.57,0-201.712-30.285-283.426-82.855c14.857,1.714,29.143,2.285,44.571,2.285
		c86.285,0,165.713-29.143,229.141-78.856c-81.142-1.714-149.142-54.856-172.569-127.999c11.428,1.715,22.856,2.857,34.856,2.857
		c16.571,0,33.143-2.286,48.571-6.285c-84.571-17.144-147.999-91.428-147.999-181.142v-2.286
		c24.571,13.715,53.143,22.286,83.428,23.429c-49.714-33.143-82.285-89.714-82.285-153.713c0-34.285,9.144-65.714,25.143-93.142
		C178.855,291.998,315.426,365.14,468.567,373.14c-2.857-13.714-4.571-28-4.571-42.285c0-101.714,82.285-184.57,184.569-184.57
		c53.143,0,101.143,22.286,134.856,58.286c41.714-8,81.713-23.429,117.142-44.571c-13.714,42.856-42.856,78.856-81.143,101.713
		C856.563,257.712,892.563,247.427,925.706,233.141L925.706,233.141z"/>
</g>
</svg>
